# xmcd CD database file
#
# Track frame offsets:
#	150
#	11792
#	25115
#	39499
#	50880
#	66580
#	82463
#	98964
#	113365
#	125555
#	150016
#	194952
#	214226
#
# Disc length: 3036 seconds
#
# Revision: 0
# Processed by: cddbd v1.5.2PL0 Copyright (c) Steve Scherf et al.
# Submitted via: CDex 1.51
#
DISCID=bd0bda0d
DTITLE=Hank III - Damn Right, Rebel Proud
DYEAR=2008
DGENRE=Country
TTITLE0=The Grand Ole Opry (Ain't So Grand)
TTITLE1=Wild and Free
TTITLE2=Me and My Friends
TTITLE3=Six Pack of Beer
TTITLE4=I Wish I Knew
TTITLE5=If You Can't Help Your Own
TTITLE6=Candidate for Suicide
TTITLE7=H8 Line
TTITLE8=Long Hauls and Calls
TTITLE9=Stoned and Alone
TTITLE10=P.F.F.
TTITLE11=3 Shades of Black
TTITLE12=Workin Man
EXTD=YEAR: 2008
EXTT0=
EXTT1=
EXTT2=
EXTT3=
EXTT4=
EXTT5=
EXTT6=
EXTT7=
EXTT8=
EXTT9=
EXTT10=
EXTT11=
EXTT12=
PLAYORDER=
